# xmcd
# 
# Track frame offsets:
#     150
#     28512
#     67597
#     105655
#     149392
#     180880
#     210755
#     251270
# 
# Disc length: 4050
# 
# Revision: 1
# Processed by: cddbd v1.5.2PL0 Copyright (c) Steve Scherf et al.
# Submitted via: BonkEnc v1.0.8
# 
DISCID=560fd008
DTITLE=Mal Waldron - MAL-2
DYEAR=1957
DGENRE=Jazz
TTITLE0=From This Moment On
TTITLE1=J.M.'s Dream Doll
TTITLE2=The Way You Look Tonight
TTITLE3=One By One
TTITLE4=Don't Explain
TTITLE5=Potopuri
TTITLE6=Blue Calypso
TTITLE7=Falling In Love With You
EXTD=YEAR: 1957
EXTT0=
EXTT1=
EXTT2=
EXTT3=
EXTT4=
EXTT5=
EXTT6=
EXTT7=
PLAYORDER=
